<?xml version="1.0" standalone="no"?>
<!DOCTYPE svg PUBLIC "-//W3C//DTD SVG 20010904//EN"
 "http://www.w3.org/TR/2001/REC-SVG-20010904/DTD/svg10.dtd">
<svg version="1.0" xmlns="http://www.w3.org/2000/svg"
 width="597.000000pt" height="596.000000pt" viewBox="0 0 597.000000 596.000000"
 preserveAspectRatio="xMidYMid meet">

<g transform="translate(0.000000,596.000000) scale(0.100000,-0.100000)"
fill="#000000" stroke="none">
<path d="M3610 3747 c0 -191 -4 -347 -10 -367 -7 -26 -68 -93 -237 -262 -125
-126 -231 -228 -235 -228 -5 0 -8 83 -8 185 l0 185 -855 0 -855 0 0 -140 c0
-108 -3 -140 -13 -140 -7 0 -181 34 -387 75 -206 41 -387 75 -402 75 -15 0
-37 -9 -48 -20 -20 -20 -20 -33 -20 -1280 0 -1247 0 -1260 20 -1280 20 -20 33
-20 1268 -20 1113 0 1250 2 1270 16 l22 15 0 1042 0 1042 325 325 325 326 0
174 0 175 217 217 218 218 -115 0 -116 0 -64 -65 c-46 -47 -72 -65 -90 -65
-38 0 -50 18 -50 77 l0 53 -80 0 -80 0 0 -333z m-982 -1129 c8 -8 12 -60 12
-170 0 -145 -1 -158 -19 -168 -12 -6 -136 -10 -333 -10 -268 0 -317 2 -336 16
-21 14 -22 22 -22 164 0 122 3 151 16 164 13 14 59 16 343 16 241 0 330 -3
339 -12z m-1054 -704 c13 -13 16 -42 16 -164 0 -147 0 -150 -24 -165 -35 -23
-662 -18 -676 5 -5 8 -10 81 -10 162 0 120 3 149 16 162 13 14 58 16 339 16
281 0 326 -2 339 -16z m1054 4 c8 -8 12 -59 12 -164 0 -125 -3 -155 -16 -168
-13 -14 -58 -16 -335 -16 -306 0 -320 1 -339 20 -18 18 -20 33 -20 164 0 118
3 147 16 160 13 14 59 16 343 16 241 0 330 -3 339 -12z m-1054 -704 c13 -13
16 -42 16 -164 0 -142 -1 -150 -22 -164 -34 -24 -649 -24 -672 0 -23 23 -23
305 0 328 13 14 58 16 339 16 281 0 326 -2 339 -16z m1047 6 c17 -10 19 -23
19 -165 0 -126 -3 -156 -16 -169 -13 -14 -58 -16 -335 -16 -306 0 -320 1 -339
20 -18 18 -20 33 -20 164 0 118 3 147 16 160 13 14 58 16 335 16 202 0 327 -4
340 -10z"/>
<path d="M3605 2520 l-350 -350 0 -810 c0 -710 2 -812 15 -820 8 -5 41 -10 72
-10 47 0 59 4 68 19 6 13 10 155 10 392 l0 373 350 351 c243 244 350 357 350
372 0 53 -40 93 -93 93 -14 0 -101 -79 -277 -255 -261 -261 -283 -278 -318
-243 -9 9 -12 76 -12 242 l0 230 350 351 c315 315 350 354 350 383 l0 32 -83
0 -82 0 -350 -350z"/>
<path d="M4310 1947 l0 -332 -350 -350 -350 -350 0 -186 c0 -161 2 -188 16
-193 28 -11 120 -6 132 6 8 8 12 58 12 157 l0 146 568 568 568 568 49 -23 c40
-18 68 -23 135 -23 103 0 155 21 231 92 62 58 99 127 106 199 l6 54 -82 0
c-80 0 -81 0 -81 -25 0 -41 -37 -103 -78 -130 -108 -71 -250 -16 -284 111
l-12 44 -79 0 -80 0 7 -46 c3 -25 15 -67 26 -92 l21 -46 -122 -122 c-67 -68
-130 -125 -140 -127 -10 -3 -27 2 -38 10 -20 13 -21 23 -21 219 l0 204 -80 0
-80 0 0 -333z"/>
</g>
</svg>
